<mxfile host="app.diagrams.net" modified="2023-04-07T03:42:52.248Z" agent="Mozilla/5.0 (Macintosh; Intel Mac OS X 10_15_7) AppleWebKit/537.36 (KHTML, like Gecko) Chrome/107.0.0.0 Safari/537.36 Edg/107.0.1418.23" etag="KAoUJIcolRGWvtfGVBkB" version="21.1.4" type="device">
  <diagram id="yPxyJZ8AM_hMuL3Unpa9" name="complex gitflow">
    <mxGraphModel dx="826" dy="567" grid="1" gridSize="10" guides="1" tooltips="1" connect="1" arrows="1" fold="1" page="1" pageScale="1" pageWidth="1100" pageHeight="850" math="0" shadow="0">
      <root>
        <mxCell id="0" />
        <mxCell id="1" parent="0" />
        <mxCell id="uWUnNED6HEl2aK5fdaIb-7" value="Fix / Hotfix Commit" style="text;html=1;strokeColor=none;fillColor=none;align=center;verticalAlign=middle;whiteSpace=wrap;overflow=hidden;" parent="1" vertex="1">
          <mxGeometry x="324" y="70" width="122.75" height="30" as="geometry" />
        </mxCell>
        <mxCell id="uWUnNED6HEl2aK5fdaIb-8" value="" style="edgeStyle=orthogonalEdgeStyle;rounded=0;html=1;jettySize=auto;orthogonalLoop=1;plain-blue;endArrow=none;endFill=0;strokeWidth=4;strokeColor=#000000;entryX=0;entryY=0.5;entryDx=0;entryDy=0;entryPerimeter=0;" parent="1" source="uWUnNED6HEl2aK5fdaIb-10" target="fdzKyXAYCe5UzIv8Cvmz-7" edge="1">
          <mxGeometry x="292.25" y="211" as="geometry">
            <mxPoint x="400" y="211" as="targetPoint" />
          </mxGeometry>
        </mxCell>
        <mxCell id="uWUnNED6HEl2aK5fdaIb-9" style="edgeStyle=orthogonalEdgeStyle;curved=1;rounded=0;html=1;exitX=1;exitY=0.5;exitPerimeter=0;entryX=0;entryY=0.5;entryPerimeter=0;endArrow=none;endFill=0;jettySize=auto;orthogonalLoop=1;strokeWidth=4;fontSize=15;" parent="1" source="uWUnNED6HEl2aK5fdaIb-10" target="uWUnNED6HEl2aK5fdaIb-15" edge="1">
          <mxGeometry relative="1" as="geometry" />
        </mxCell>
        <mxCell id="uWUnNED6HEl2aK5fdaIb-10" value="" style="verticalLabelPosition=bottom;verticalAlign=top;html=1;strokeWidth=4;shape=mxgraph.flowchart.on-page_reference;plain-blue;gradientColor=none;fillColor=#B5E3Fe;strokeColor=#000000;align=left;" parent="1" vertex="1">
          <mxGeometry x="262.25" y="196" width="30" height="30" as="geometry" />
        </mxCell>
        <mxCell id="uWUnNED6HEl2aK5fdaIb-80" value="" style="edgeStyle=orthogonalEdgeStyle;curved=1;rounded=0;orthogonalLoop=1;jettySize=auto;html=1;endArrow=none;endFill=0;strokeWidth=4;entryX=0;entryY=0.5;entryDx=0;entryDy=0;entryPerimeter=0;exitX=1;exitY=0.5;exitDx=0;exitDy=0;exitPerimeter=0;" parent="1" source="uWUnNED6HEl2aK5fdaIb-11" target="uWUnNED6HEl2aK5fdaIb-109" edge="1">
          <mxGeometry relative="1" as="geometry">
            <mxPoint x="834.4999999999995" y="211" as="targetPoint" />
            <mxPoint x="740" y="211" as="sourcePoint" />
          </mxGeometry>
        </mxCell>
        <mxCell id="uWUnNED6HEl2aK5fdaIb-105" style="edgeStyle=orthogonalEdgeStyle;curved=1;rounded=0;orthogonalLoop=1;jettySize=auto;html=1;exitX=1;exitY=0.5;exitDx=0;exitDy=0;exitPerimeter=0;entryX=0;entryY=0.5;entryDx=0;entryDy=0;entryPerimeter=0;endArrow=none;endFill=0;strokeWidth=4;fontFamily=Courier New;fontColor=#009900;" parent="1" source="uWUnNED6HEl2aK5fdaIb-11" target="uWUnNED6HEl2aK5fdaIb-104" edge="1">
          <mxGeometry relative="1" as="geometry">
            <mxPoint x="740" y="211" as="sourcePoint" />
          </mxGeometry>
        </mxCell>
        <mxCell id="uWUnNED6HEl2aK5fdaIb-11" value="" style="verticalLabelPosition=bottom;verticalAlign=top;html=1;strokeWidth=4;shape=mxgraph.flowchart.on-page_reference;plain-blue;gradientColor=none;strokeColor=#000000;fillColor=#B5E3FE;" parent="1" vertex="1">
          <mxGeometry x="690" y="196" width="30" height="30" as="geometry" />
        </mxCell>
        <mxCell id="uWUnNED6HEl2aK5fdaIb-109" value="" style="verticalLabelPosition=bottom;verticalAlign=top;html=1;strokeWidth=4;shape=mxgraph.flowchart.on-page_reference;plain-blue;gradientColor=none;strokeColor=#33001A;fillColor=#B5E3FE;" parent="1" vertex="1">
          <mxGeometry x="860" y="196" width="30" height="30" as="geometry" />
        </mxCell>
        <mxCell id="uWUnNED6HEl2aK5fdaIb-12" value="" style="edgeStyle=orthogonalEdgeStyle;rounded=0;html=1;jettySize=auto;orthogonalLoop=1;strokeWidth=4;endArrow=none;endFill=0;exitX=1;exitY=0.5;exitDx=0;exitDy=0;align=left;" parent="1" source="uWUnNED6HEl2aK5fdaIb-13" edge="1">
          <mxGeometry x="211.25" y="211" as="geometry">
            <mxPoint x="169" y="211" as="sourcePoint" />
            <mxPoint x="260" y="211" as="targetPoint" />
          </mxGeometry>
        </mxCell>
        <mxCell id="uWUnNED6HEl2aK5fdaIb-13" value="master" style="text;html=1;strokeColor=none;fillColor=none;align=left;verticalAlign=middle;whiteSpace=wrap;overflow=hidden;fontSize=14;fontStyle=1;fontFamily=Courier New;" parent="1" vertex="1">
          <mxGeometry x="44.75" y="190" width="65.25" height="42" as="geometry" />
        </mxCell>
        <mxCell id="uWUnNED6HEl2aK5fdaIb-14" style="edgeStyle=orthogonalEdgeStyle;curved=1;rounded=0;html=1;exitX=1;exitY=0.5;exitPerimeter=0;endArrow=none;endFill=0;jettySize=auto;orthogonalLoop=1;strokeWidth=4;fontSize=15;" parent="1" source="uWUnNED6HEl2aK5fdaIb-15" target="uWUnNED6HEl2aK5fdaIb-17" edge="1">
          <mxGeometry relative="1" as="geometry" />
        </mxCell>
        <mxCell id="uWUnNED6HEl2aK5fdaIb-15" value="" style="verticalLabelPosition=bottom;verticalAlign=top;html=1;strokeWidth=4;shape=mxgraph.flowchart.on-page_reference;plain-purple;gradientColor=none;strokeColor=#000000;fillColor=#D5E8D4;" parent="1" vertex="1">
          <mxGeometry x="339.75" y="281" width="30" height="30" as="geometry" />
        </mxCell>
        <mxCell id="uWUnNED6HEl2aK5fdaIb-17" value="" style="verticalLabelPosition=bottom;verticalAlign=top;html=1;strokeWidth=4;shape=mxgraph.flowchart.on-page_reference;plain-purple;gradientColor=none;strokeColor=#000000;fillColor=#D5E8D4;" parent="1" vertex="1">
          <mxGeometry x="473" y="281" width="30" height="30" as="geometry" />
        </mxCell>
        <mxCell id="uWUnNED6HEl2aK5fdaIb-18" style="edgeStyle=orthogonalEdgeStyle;curved=1;rounded=0;html=1;exitX=1;exitY=0.5;exitPerimeter=0;entryX=0;entryY=0.5;entryPerimeter=0;endArrow=none;endFill=0;jettySize=auto;orthogonalLoop=1;strokeWidth=4;fontSize=15;exitDx=0;exitDy=0;" parent="1" source="fdzKyXAYCe5UzIv8Cvmz-16" target="uWUnNED6HEl2aK5fdaIb-11" edge="1">
          <mxGeometry relative="1" as="geometry">
            <mxPoint x="589.75" y="296" as="sourcePoint" />
          </mxGeometry>
        </mxCell>
        <mxCell id="uWUnNED6HEl2aK5fdaIb-20" value="develop/sprint-2" style="text;html=1;strokeColor=none;fillColor=none;align=left;verticalAlign=middle;whiteSpace=wrap;overflow=hidden;fontSize=14;fontStyle=1;fontFamily=Courier New;" parent="1" vertex="1">
          <mxGeometry x="44.75" y="286" width="151.25" height="20" as="geometry" />
        </mxCell>
        <mxCell id="uWUnNED6HEl2aK5fdaIb-75" style="edgeStyle=orthogonalEdgeStyle;rounded=0;orthogonalLoop=1;jettySize=auto;html=1;entryX=1;entryY=0.5;entryDx=0;entryDy=0;entryPerimeter=0;endArrow=none;endFill=0;strokeWidth=4;curved=1;" parent="1" source="uWUnNED6HEl2aK5fdaIb-69" target="uWUnNED6HEl2aK5fdaIb-15" edge="1">
          <mxGeometry relative="1" as="geometry" />
        </mxCell>
        <mxCell id="uWUnNED6HEl2aK5fdaIb-69" value="" style="verticalLabelPosition=bottom;verticalAlign=top;html=1;strokeWidth=4;shape=mxgraph.flowchart.on-page_reference;strokeColor=#d6b656;fillColor=#fff2cc;" parent="1" vertex="1">
          <mxGeometry x="409.75" y="361" width="30" height="30" as="geometry" />
        </mxCell>
        <mxCell id="uWUnNED6HEl2aK5fdaIb-76" value="feature/feature-1" style="text;html=1;strokeColor=none;fillColor=none;align=left;verticalAlign=middle;whiteSpace=wrap;overflow=hidden;fontSize=14;fontStyle=1;fontFamily=Courier New;" parent="1" vertex="1">
          <mxGeometry x="44.75" y="364" width="155.25" height="20" as="geometry" />
        </mxCell>
        <mxCell id="uWUnNED6HEl2aK5fdaIb-87" value="Development or sprint branch" style="text;html=1;strokeColor=none;fillColor=none;align=left;verticalAlign=middle;whiteSpace=wrap;overflow=hidden;fontSize=14;fontStyle=0;fontColor=#009900;" parent="1" vertex="1">
          <mxGeometry x="44.75" y="311.5" width="240" height="20" as="geometry" />
        </mxCell>
        <mxCell id="uWUnNED6HEl2aK5fdaIb-89" value="Feature branch" style="text;html=1;strokeColor=none;fillColor=none;align=left;verticalAlign=middle;whiteSpace=wrap;overflow=hidden;fontSize=14;fontStyle=0;fontColor=#009900;" parent="1" vertex="1">
          <mxGeometry x="44.75" y="391" width="240" height="20" as="geometry" />
        </mxCell>
        <mxCell id="uWUnNED6HEl2aK5fdaIb-90" value="Main branch" style="text;html=1;strokeColor=none;fillColor=none;align=left;verticalAlign=middle;whiteSpace=wrap;overflow=hidden;fontSize=14;fontStyle=0;fontColor=#009900;" parent="1" vertex="1">
          <mxGeometry x="44.75" y="220" width="146.75" height="20" as="geometry" />
        </mxCell>
        <mxCell id="uWUnNED6HEl2aK5fdaIb-92" value="" style="endArrow=classic;html=1;strokeWidth=1;fontFamily=Courier New;fontColor=#009900;exitX=1;exitY=0.5;exitDx=0;exitDy=0;" parent="1" source="uWUnNED6HEl2aK5fdaIb-76" edge="1">
          <mxGeometry width="50" height="50" relative="1" as="geometry">
            <mxPoint x="280" y="374" as="sourcePoint" />
            <mxPoint x="376.75" y="374" as="targetPoint" />
          </mxGeometry>
        </mxCell>
        <mxCell id="uWUnNED6HEl2aK5fdaIb-93" value="" style="endArrow=classic;html=1;strokeWidth=1;fontFamily=Courier New;fontColor=#009900;align=left;" parent="1" source="uWUnNED6HEl2aK5fdaIb-20" edge="1">
          <mxGeometry width="50" height="50" relative="1" as="geometry">
            <mxPoint x="240" y="296" as="sourcePoint" />
            <mxPoint x="296.75" y="296" as="targetPoint" />
          </mxGeometry>
        </mxCell>
        <mxCell id="uWUnNED6HEl2aK5fdaIb-101" value="Tag: 1.1.0" style="text;html=1;strokeColor=none;fillColor=none;align=center;verticalAlign=middle;whiteSpace=wrap;overflow=hidden;fontSize=14;" parent="1" vertex="1">
          <mxGeometry x="830" y="158" width="110" height="20" as="geometry" />
        </mxCell>
        <mxCell id="uWUnNED6HEl2aK5fdaIb-103" value="Tag: 1.0.0" style="text;html=1;strokeColor=none;fillColor=none;align=center;verticalAlign=middle;whiteSpace=wrap;overflow=hidden;fontSize=14;" parent="1" vertex="1">
          <mxGeometry x="242.25" y="170" width="70" height="20" as="geometry" />
        </mxCell>
        <mxCell id="uWUnNED6HEl2aK5fdaIb-104" value="" style="verticalLabelPosition=bottom;verticalAlign=top;html=1;strokeWidth=4;shape=mxgraph.flowchart.on-page_reference;strokeColor=#9673a6;fillColor=#e1d5e7;" parent="1" vertex="1">
          <mxGeometry x="780" y="281" width="30" height="30" as="geometry" />
        </mxCell>
        <mxCell id="uWUnNED6HEl2aK5fdaIb-115" style="edgeStyle=orthogonalEdgeStyle;curved=1;rounded=0;orthogonalLoop=1;jettySize=auto;html=1;entryX=0;entryY=0.5;entryDx=0;entryDy=0;entryPerimeter=0;endArrow=none;endFill=0;strokeWidth=4;fontFamily=Courier New;fontColor=#009900;exitX=1;exitY=0.5;exitDx=0;exitDy=0;exitPerimeter=0;" parent="1" source="uWUnNED6HEl2aK5fdaIb-104" target="uWUnNED6HEl2aK5fdaIb-109" edge="1">
          <mxGeometry relative="1" as="geometry">
            <mxPoint x="916.75" y="296" as="sourcePoint" />
            <Array as="points">
              <mxPoint x="830" y="296" />
              <mxPoint x="830" y="211" />
            </Array>
          </mxGeometry>
        </mxCell>
        <mxCell id="fSnZ5vnYTslC5NarKmr_-8" value="&lt;span style=&quot;text-align: center; font-size: 11px;&quot;&gt;Each tag represents a production release.&lt;/span&gt;" style="text;html=1;strokeColor=none;fillColor=none;align=left;verticalAlign=middle;whiteSpace=wrap;overflow=hidden;fontSize=11;fontStyle=0;fontColor=#000000;" parent="1" vertex="1">
          <mxGeometry x="900" y="190" width="120" height="38" as="geometry" />
        </mxCell>
        <mxCell id="9hBKPDzoitwpIBdzFDQ7-21" value="" style="edgeStyle=orthogonalEdgeStyle;rounded=0;orthogonalLoop=1;jettySize=auto;html=1;fontSize=15;endArrow=none;endFill=0;strokeWidth=4;entryX=0;entryY=0.5;entryDx=0;entryDy=0;entryPerimeter=0;exitX=1;exitY=0.5;exitDx=0;exitDy=0;exitPerimeter=0;" parent="1" source="fdzKyXAYCe5UzIv8Cvmz-7" target="uWUnNED6HEl2aK5fdaIb-11" edge="1">
          <mxGeometry relative="1" as="geometry">
            <mxPoint x="560.25" y="211" as="targetPoint" />
            <mxPoint x="482.25" y="211" as="sourcePoint" />
          </mxGeometry>
        </mxCell>
        <mxCell id="fdzKyXAYCe5UzIv8Cvmz-3" style="edgeStyle=orthogonalEdgeStyle;curved=1;rounded=0;orthogonalLoop=1;jettySize=auto;html=1;endArrow=none;endFill=0;strokeWidth=4;fontFamily=Courier New;fontColor=#009900;exitX=1;exitY=0.5;exitDx=0;exitDy=0;exitPerimeter=0;" parent="1" source="uWUnNED6HEl2aK5fdaIb-69" target="uWUnNED6HEl2aK5fdaIb-17" edge="1">
          <mxGeometry relative="1" as="geometry">
            <mxPoint x="457.75" y="407" as="sourcePoint" />
            <mxPoint x="498.5" y="331" as="targetPoint" />
            <Array as="points">
              <mxPoint x="460" y="376" />
              <mxPoint x="460" y="296" />
            </Array>
          </mxGeometry>
        </mxCell>
        <mxCell id="fdzKyXAYCe5UzIv8Cvmz-4" value="" style="verticalLabelPosition=bottom;verticalAlign=top;html=1;strokeWidth=4;shape=mxgraph.flowchart.on-page_reference;plain-blue;gradientColor=#EA6B66;strokeColor=#B85450;fillColor=#F8CECC;" parent="1" vertex="1">
          <mxGeometry x="360" y="111" width="30" height="30" as="geometry" />
        </mxCell>
        <mxCell id="fdzKyXAYCe5UzIv8Cvmz-5" style="edgeStyle=orthogonalEdgeStyle;curved=1;rounded=0;html=1;exitX=1;exitY=0.5;exitPerimeter=0;entryX=0;entryY=0.5;entryPerimeter=0;endArrow=none;endFill=0;jettySize=auto;orthogonalLoop=1;strokeWidth=4;fontSize=15;entryDx=0;entryDy=0;exitDx=0;exitDy=0;" parent="1" source="uWUnNED6HEl2aK5fdaIb-10" target="fdzKyXAYCe5UzIv8Cvmz-4" edge="1">
          <mxGeometry relative="1" as="geometry">
            <mxPoint x="320" y="188" as="sourcePoint" />
            <mxPoint x="362" y="103" as="targetPoint" />
            <Array as="points">
              <mxPoint x="330" y="211" />
              <mxPoint x="330" y="125" />
            </Array>
          </mxGeometry>
        </mxCell>
        <mxCell id="fdzKyXAYCe5UzIv8Cvmz-7" value="" style="verticalLabelPosition=bottom;verticalAlign=top;html=1;strokeWidth=4;shape=mxgraph.flowchart.on-page_reference;plain-blue;gradientColor=none;strokeColor=#000000;fillColor=#B5E3FE;" parent="1" vertex="1">
          <mxGeometry x="446.75" y="196" width="30" height="30" as="geometry" />
        </mxCell>
        <mxCell id="fdzKyXAYCe5UzIv8Cvmz-9" style="edgeStyle=orthogonalEdgeStyle;curved=1;rounded=0;orthogonalLoop=1;jettySize=auto;html=1;exitX=1;exitY=0.5;exitDx=0;exitDy=0;exitPerimeter=0;entryX=0;entryY=0.5;entryDx=0;entryDy=0;entryPerimeter=0;endArrow=none;endFill=0;strokeWidth=4;fontFamily=Courier New;fontColor=#009900;" parent="1" source="fdzKyXAYCe5UzIv8Cvmz-4" target="fdzKyXAYCe5UzIv8Cvmz-7" edge="1">
          <mxGeometry relative="1" as="geometry">
            <mxPoint x="439.75" y="103" as="sourcePoint" />
            <mxPoint x="484.75" y="188" as="targetPoint" />
          </mxGeometry>
        </mxCell>
        <mxCell id="fdzKyXAYCe5UzIv8Cvmz-10" value="fix/bug-a" style="text;html=1;strokeColor=none;fillColor=none;align=left;verticalAlign=middle;whiteSpace=wrap;overflow=hidden;fontSize=14;fontStyle=1;fontFamily=Courier New;" parent="1" vertex="1">
          <mxGeometry x="44.75" y="111" width="90" height="20" as="geometry" />
        </mxCell>
        <mxCell id="fdzKyXAYCe5UzIv8Cvmz-11" value="Bug fix branch" style="text;html=1;strokeColor=none;fillColor=none;align=left;verticalAlign=middle;whiteSpace=wrap;overflow=hidden;fontSize=14;fontStyle=0;fontColor=#009900;" parent="1" vertex="1">
          <mxGeometry x="44.75" y="138" width="159.5" height="20" as="geometry" />
        </mxCell>
        <mxCell id="fdzKyXAYCe5UzIv8Cvmz-12" value="" style="endArrow=classic;html=1;strokeWidth=1;fontFamily=Courier New;fontColor=#009900;exitX=1;exitY=0.5;exitDx=0;exitDy=0;" parent="1" source="fdzKyXAYCe5UzIv8Cvmz-10" edge="1">
          <mxGeometry width="50" height="50" relative="1" as="geometry">
            <mxPoint x="272.25" y="121" as="sourcePoint" />
            <mxPoint x="330" y="120" as="targetPoint" />
          </mxGeometry>
        </mxCell>
        <mxCell id="fdzKyXAYCe5UzIv8Cvmz-13" value="release-*" style="text;html=1;strokeColor=none;fillColor=none;align=left;verticalAlign=middle;whiteSpace=wrap;overflow=hidden;fontSize=14;fontStyle=1;fontFamily=Courier New;" parent="1" vertex="1">
          <mxGeometry x="893.25" y="286.5" width="151.25" height="20" as="geometry" />
        </mxCell>
        <mxCell id="fdzKyXAYCe5UzIv8Cvmz-14" value="Release branch&lt;br&gt;(created automatically)" style="text;html=1;strokeColor=none;fillColor=none;align=left;verticalAlign=middle;whiteSpace=wrap;overflow=hidden;fontSize=14;fontStyle=0;fontColor=#009900;" parent="1" vertex="1">
          <mxGeometry x="893.25" y="316.5" width="150" height="40" as="geometry" />
        </mxCell>
        <mxCell id="fdzKyXAYCe5UzIv8Cvmz-15" value="" style="endArrow=classic;html=1;strokeWidth=1;fontFamily=Courier New;fontColor=#009900;align=left;" parent="1" edge="1">
          <mxGeometry width="50" height="50" relative="1" as="geometry">
            <mxPoint x="880.75" y="297.5" as="sourcePoint" />
            <mxPoint x="820" y="297.5" as="targetPoint" />
          </mxGeometry>
        </mxCell>
        <mxCell id="fdzKyXAYCe5UzIv8Cvmz-17" value="" style="edgeStyle=orthogonalEdgeStyle;curved=1;rounded=0;html=1;exitX=1;exitY=0.5;exitPerimeter=0;entryX=0;entryY=0.5;entryPerimeter=0;endArrow=none;endFill=0;jettySize=auto;orthogonalLoop=1;strokeWidth=4;fontSize=15;exitDx=0;exitDy=0;" parent="1" source="uWUnNED6HEl2aK5fdaIb-17" target="fdzKyXAYCe5UzIv8Cvmz-16" edge="1">
          <mxGeometry relative="1" as="geometry">
            <mxPoint x="520" y="296" as="sourcePoint" />
            <mxPoint x="650" y="211" as="targetPoint" />
          </mxGeometry>
        </mxCell>
        <mxCell id="fdzKyXAYCe5UzIv8Cvmz-16" value="" style="verticalLabelPosition=bottom;verticalAlign=top;html=1;strokeWidth=4;shape=mxgraph.flowchart.on-page_reference;plain-purple;gradientColor=none;strokeColor=#000000;fillColor=#D5E8D4;" parent="1" vertex="1">
          <mxGeometry x="610" y="281" width="30" height="30" as="geometry" />
        </mxCell>
        <mxCell id="fdzKyXAYCe5UzIv8Cvmz-18" value="" style="verticalLabelPosition=bottom;verticalAlign=top;html=1;strokeWidth=4;shape=mxgraph.flowchart.on-page_reference;strokeColor=#d6b656;fillColor=#fff2cc;" parent="1" vertex="1">
          <mxGeometry x="550" y="361" width="30" height="30" as="geometry" />
        </mxCell>
        <mxCell id="fdzKyXAYCe5UzIv8Cvmz-19" style="edgeStyle=orthogonalEdgeStyle;rounded=0;orthogonalLoop=1;jettySize=auto;html=1;entryX=1;entryY=0.5;entryDx=0;entryDy=0;entryPerimeter=0;endArrow=none;endFill=0;strokeWidth=4;curved=1;exitX=0;exitY=0.5;exitDx=0;exitDy=0;exitPerimeter=0;" parent="1" source="fdzKyXAYCe5UzIv8Cvmz-18" target="uWUnNED6HEl2aK5fdaIb-17" edge="1">
          <mxGeometry relative="1" as="geometry">
            <mxPoint x="537" y="411" as="sourcePoint" />
            <mxPoint x="490" y="331" as="targetPoint" />
          </mxGeometry>
        </mxCell>
        <mxCell id="fdzKyXAYCe5UzIv8Cvmz-20" style="edgeStyle=orthogonalEdgeStyle;curved=1;rounded=0;orthogonalLoop=1;jettySize=auto;html=1;endArrow=none;endFill=0;strokeWidth=4;fontFamily=Courier New;fontColor=#009900;exitX=1;exitY=0.5;exitDx=0;exitDy=0;exitPerimeter=0;entryX=0;entryY=0.5;entryDx=0;entryDy=0;entryPerimeter=0;" parent="1" source="fdzKyXAYCe5UzIv8Cvmz-18" target="fdzKyXAYCe5UzIv8Cvmz-16" edge="1">
          <mxGeometry relative="1" as="geometry">
            <mxPoint x="596.38" y="416" as="sourcePoint" />
            <mxPoint x="629.38" y="336" as="targetPoint" />
            <Array as="points">
              <mxPoint x="600" y="376" />
              <mxPoint x="600" y="296" />
            </Array>
          </mxGeometry>
        </mxCell>
      </root>
    </mxGraphModel>
  </diagram>
</mxfile>
